<svg width="45" height="45" viewBox="0 0 45 45" fill="none" xmlns="http://www.w3.org/2000/svg">
<circle cx="22.5" cy="22.5" r="21.45" fill="#FFFAF5" stroke="#6365F1" stroke-width="2.1"/>
<circle cx="22.5" cy="22.5" r="18.25" stroke="#62BC82" stroke-width="0.5"/>
<circle cx="22.5" cy="22.5" r="16.25" stroke="#6365F1" stroke-width="0.5"/>
<path d="M20.2 31.1999H15.4C14.0745 31.1999 13 30.1254 13 28.7999L13.0001 14.4C13.0001 13.0745 14.0746 12 15.4001 12H26.2004C27.5258 12 28.6004 13.0745 28.6004 14.4V21M23.8004 27.8L26.0004 30L26.2299 29.6326C27.6421 27.3728 30.1189 26 32.7836 26H33.1437C34.3568 26 35.5467 26.3417 36.5754 26.9846V26.9846C38.1185 27.9491 39.1855 29.5205 39.5111 31.3108V31.3108C39.8236 33.0299 39.4269 34.8023 38.4113 36.2241L37.5 37.5L35.5 39.5L33.5 41" stroke="#6365F1" stroke-width="2" stroke-linecap="round" stroke-linejoin="round"/>
</svg>
